#!OML:ASF X:\für Bonn\!DataBase\2005_08_11_Bastian_Final\c3d\Bastian.ASF
:FULLY-SPECIFIED
:DEGREES
199
root 9.95262 16.8707 -3.30204 75.1086 105.731 -637.029
lowerback 13.6004 -0.110201 8.46848
upperback 8.72954 1.39427 3.60114
thorax 1.72666 1.2087 -1.12693
lowerneck -10.1995 5.94975 -5.29296
upperneck -2.65406 8.66762 -2.4506
head 0.738689 4.39461 0.41437
rclavicle -1.78906e-015 2.8625e-014
rhumerus -37.847 31.3632 -96.1743
rradius 102.723
rwrist 12.518
rhand -23.0978 22.6467
rfingers 7.12502
rthumb 3.34861 -7.30678
lclavicle -1.78906e-015 2.8625e-014
lhumerus -43.9562 -11.7899 84.5752
lradius 77.4281
lwrist 203.651
lhand -25.5976 9.93641
lfingers 7.12502
lthumb 0.93435 39.9141
rfemur 7.09552 -8.84141 29.0891
rtibia 34.4459
rfoot -21.877 1.16185
rtoes -30.4846
lfemur -43.1036 9.72849 -14.885
ltibia 91.4456
lfoot -13.7517 -6.06705
ltoes -13.7248
200
root 10.2593 16.9727 -3.30156 72.4414 105.701 -639.725
lowerback 13.2181 0.0781964 8.27823
upperback 8.57226 1.5717 3.54675
thorax 1.77018 1.28174 -1.09477
lowerneck -10.0234 5.85187 -5.14173
upperneck -2.19332 8.50998 -2.35971
head 0.861221 4.29758 0.41935
rclavicle -7.15625e-015 -4.77083e-014
rhumerus -37.5729 32.0646 -96.2399
rradius 104.417
rwrist 12.177
rhand -22.7948 23.1366
rfingers 7.12502
rthumb 3.64126 -6.81209
lclavicle -7.15625e-015 -4.77083e-014
lhumerus -44.9574 -12.3489 84.0648
lradius 77.9256
lwrist 205.237
lhand -25.6518 9.76412
lfingers 7.12502
lthumb 0.882046 39.742
rfemur 8.90015 -7.88284 29.3725
rtibia 32.7893
rfoot -20.4084 0.322593
rtoes -30.162
lfemur -42.7563 9.66191 -15.4939
ltibia 87.7967
lfoot -13.6369 -6.16691
ltoes -12.4543
201
root 10.5726 17.0781 -3.30518 69.1083 105.747 -643.093
lowerback 12.7765 0.21298 8.08327
upperback 8.41313 1.67315 3.49416
thorax 1.83769 1.31734 -1.04703
lowerneck -9.8375 5.74266 -4.92959
upperneck -1.73403 8.33134 -2.311
head 0.986373 4.19003 0.400265
rclavicle -3.10104e-014 -6.99722e-014
rhumerus -37.3109 32.5997 -96.2415
rradius 106.218
rwrist 12.1462
rhand -22.4451 23.3823
rfingers 7.12502
rthumb 3.97894 -6.56032
lclavicle -3.10104e-014 -6.99722e-014
lhumerus -45.9118 -12.9347 83.5964
lradius 78.3378
lwrist 206.656
lhand -25.6172 9.81102
lfingers 7.12502
lthumb 0.915497 39.7888
rfemur 10.4814 -7.31092 29.5458
rtibia 31.4701
rfoot -18.7151 -0.236068
rtoes -29.7152
lfemur -42.2048 9.37061 -16.1429
ltibia 83.9444
lfoot -13.6096 -6.30474
ltoes -11.2502
202
root 10.892 17.1922 -3.31293 65.62 105.895 -646.737
lowerback 12.1328 0.330806 7.89653
upperback 8.25036 1.73015 3.45357
thorax 2.00786 1.33253 -0.980339
lowerneck -9.64254 5.62039 -4.81831
upperneck -1.33174 8.1439 -2.18191
head 1.08434 4.08323 0.41934
rclavicle 1.19271e-015 1.03368e-014
rhumerus -37.0295 32.9843 -96.1674
rradius 107.915
rwrist 12.5472
rhand -22.1971 23.496
rfingers 7.12502
rthumb 4.21849 -6.44193
lclavicle 1.19271e-015 1.03368e-014
lhumerus -46.8901 -13.4879 83.1818
lradius 78.8021
lwrist 207.833
lhand -25.5909 10.0849
lfingers 7.12502
lthumb 0.940893 40.0625
rfemur 11.7222 -7.1361 29.6061
rtibia 30.5472
rfoot -16.8009 -0.557054
rtoes -29.369
lfemur -41.5507 8.92683 -16.7898
ltibia 79.8676
lfoot -13.6828 -6.39652
ltoes -10.2866
203
root 11.213 17.3106 -3.32646 62.134 106.169 -650.476
lowerback 11.4002 0.420298 7.75889
upperback 8.04521 1.74648 3.42899
thorax 2.18146 1.32643 -0.918217
lowerneck -9.33364 5.49297 -4.77072
upperneck -1.01022 7.94772 -2.05175
head 1.13437 3.97632 0.442115
rclavicle 1.86858e-014 -2.38542e-014
rhumerus -36.8355 33.2787 -96.0559
rradius 109.44
rwrist 13.1976
rhand -22.1221 23.4485
rfingers 7.12502
rthumb 4.29085 -6.48802
lclavicle 1.86858e-014 -2.38542e-014
lhumerus -47.8905 -13.9334 82.8189
lradius 79.2848
lwrist 208.752
lhand -25.5481 10.5166
lfingers 7.12502
lthumb 0.98217 40.4941
rfemur 12.6105 -7.16878 29.6383
rtibia 30.0768
rfoot -14.7257 -0.759153
rtoes -29.4257
lfemur -40.7763 8.35398 -17.3899
ltibia 75.5834
lfoot -13.7663 -6.4904
ltoes -9.49675
204
root 11.5318 17.4219 -3.34468 58.8472 106.445 -653.968
lowerback 10.7349 0.519713 7.59862
upperback 7.85931 1.78453 3.39885
thorax 2.34184 1.33133 -0.851857
lowerneck -8.9419 5.34516 -4.84591
upperneck -0.812517 7.72909 -1.87378
head 1.12417 3.86451 0.49265
rclavicle 4.79071e-014 1.98785e-014
rhumerus -36.7722 33.5293 -95.8725
rradius 110.844
rwrist 14.0068
rhand -22.2649 23.2057
rfingers 7.12502
rthumb 4.15294 -6.73355
lclavicle 4.79071e-014 1.98785e-014
lhumerus -48.8843 -14.2894 82.5363
lradius 79.8411
lwrist 209.461
lhand -25.5226 11.005
lfingers 7.12502
lthumb 1.00682 40.9824
rfemur 13.2637 -7.30058 29.5424
rtibia 30.1386
rfoot -12.5049 -0.802299
rtoes -29.7816
lfemur -39.7664 7.76096 -17.986
ltibia 71.1276
lfoot -13.7488 -6.70787
ltoes -8.35522
205
root 11.8469 17.5169 -3.36733 56.0051 106.737 -656.972
lowerback 10.1637 0.640729 7.50465
upperback 7.67109 1.86935 3.33974
thorax 2.45731 1.36187 -0.857556
lowerneck -8.57108 5.18291 -4.94187
upperneck -0.59522 7.49263 -1.63367
head 1.12161 3.74412 0.567042
rclavicle 3.77691e-015 1.66979e-014
rhumerus -36.8545 33.7035 -95.7151
rradius 112.135
rwrist 14.7806
rhand -22.4481 22.8269
rfingers 7.12502
rthumb 3.97609 -7.11571
lclavicle 3.77691e-015 1.66979e-014
lhumerus -49.843 -14.6142 82.2235
lradius 80.4339
lwrist 210.081
lhand -25.6006 11.5317
lfingers 7.12502
lthumb 0.93152 41.5094
rfemur 13.6493 -7.53007 29.3658
rtibia 30.7832
rfoot -10.2751 -0.709936
rtoes -30.6397
lfemur -38.6041 7.26422 -18.5346
ltibia 66.5898
lfoot -13.6879 -7.09831
ltoes -8.06502
206
root 12.1605 17.5975 -3.39375 53.5088 107.029 -659.614
lowerback 9.61707 0.771618 7.41569
upperback 7.49092 1.97239 3.30029
thorax 2.56999 1.40192 -0.845884
lowerneck -8.16336 5.03298 -5.0513
upperneck -0.451127 7.27216 -1.46486
head 1.0918 3.63312 0.619639
rclavicle -5.32743e-014 1.35174e-014
rhumerus -37.1926 33.8015 -95.6396
rradius 113.385
rwrist 15.4052
rhand -22.5802 22.2943
rfingers 7.12502
rthumb 3.84852 -7.6507
lclavicle -5.32743e-014 1.35174e-014
lhumerus -50.7751 -14.8691 81.9907
lradius 81.0733
lwrist 210.614
lhand -25.631 12.0453
lfingers 7.12502
lthumb 0.902183 42.0232
rfemur 13.7611 -7.85599 29.1036
rtibia 32.0213
rfoot -8.16338 -0.462725
rtoes -31.6205
lfemur -37.315 6.81587 -19.0614
ltibia 62.0124
lfoot -13.6357 -7.70383
ltoes -9.78324
207
root 12.4745 17.6652 -3.42165 51.161 107.343 -662.112
lowerback 9.0641 0.914517 7.34019
upperback 7.32299 2.09273 3.24389
thorax 2.70273 1.45252 -0.858087
lowerneck -7.84919 4.86002 -5.18082
upperneck -0.276798 7.0274 -1.23324
head 1.08612 3.50979 0.699072
rclavicle 1.31198e-014 1.27222e-014
rhumerus -37.6301 33.7421 -95.6399
rradius 114.485
rwrist 15.7523
rhand -22.5627 21.7402
rfingers 7.12502
rthumb 3.86535 -8.20444
lclavicle 1.31198e-014 1.27222e-014
lhumerus -51.6512 -15.1436 81.7461
lradius 81.7599
lwrist 211.114
lhand -25.7384 12.4918
lfingers 7.12502
lthumb 0.798368 42.47
rfemur 13.6277 -8.29711 28.7571
rtibia 33.7599
rfoot -6.24836 -0.0455563
rtoes -32.3329
lfemur -35.963 6.41228 -19.5751
ltibia 57.4681
lfoot -13.6102 -8.55274
ltoes -13.2302
208
root 12.7875 17.7169 -3.44943 48.9289 107.663 -664.498
lowerback 8.4865 1.04533 7.22333
upperback 7.17889 2.1932 3.20058
thorax 2.87141 1.49322 -0.829334
lowerneck -7.53668 4.70167 -5.33577
upperneck -0.151883 6.80452 -1.0402
head 1.06581 3.39831 0.770895
rclavicle 2.56432e-014 2.3059e-014
rhumerus -38.1104 33.5881 -95.7187
rradius 115.35
rwrist 15.844
rhand -22.4848 21.3188
rfingers 7.12502
rthumb 3.94065 -8.62452
lclavicle 2.56432e-014 2.3059e-014
lhumerus -52.4497 -15.2604 81.4943
lradius 82.515
lwrist 211.532
lhand -25.9336 12.7903
lfingers 7.12502
lthumb 0.609849 42.7692
rfemur 13.286 -8.78482 28.3476
rtibia 35.8669
rfoot -4.43904 0.475911
rtoes -32.7366
lfemur -34.5855 5.99343 -20.0815
ltibia 53.0377
lfoot -13.659 -9.38122
ltoes -17.1946
209
root 13.101 17.7535 -3.47834 46.8146 107.995 -666.759
lowerback 7.90234 1.16753 7.11002
upperback 7.0404 2.28347 3.15418
thorax 3.05022 1.5294 -0.803213
lowerneck -7.19398 4.55221 -5.54936
upperneck -0.0638996 6.59373 -0.804218
head 1.02597 3.29456 0.864938
rclavicle -2.88238e-014 -3.26007e-014
rhumerus -38.7349 33.3704 -95.8824
rradius 116.052
rwrist 15.7251
rhand -22.3827 20.9933
rfingers 7.12502
rthumb 4.03919 -8.9482
lclavicle -2.88238e-014 -3.26007e-014
lhumerus -53.1028 -15.2693 81.2404
lradius 83.4161
lwrist 211.883
lhand -26.1478 12.6725
lfingers 7.12502
lthumb 0.402979 42.6519
rfemur 12.8196 -9.29208 27.8957
rtibia 38.2136
rfoot -2.82739 1.07199
rtoes -32.8475
lfemur -33.232 5.58533 -20.5634
ltibia 48.8121
lfoot -13.7274 -10.1176
ltoes -20.2184
210
root 13.4143 17.7778 -3.50886 44.8389 108.342 -668.849
lowerback 7.35038 1.28023 7.05154
upperback 6.91257 2.36914 3.08353
thorax 3.22708 1.56652 -0.831556
lowerneck -6.82378 4.4011 -5.7396
upperneck -0.0249769 6.37554 -0.586982
head 0.968357 3.18802 0.948047
rclavicle -1.98785e-015 -4.69132e-014
rhumerus -39.4576 33.0971 -96.0808
rradius 116.607
rwrist 15.4054
rhand -22.3215 20.8306
rfingers 7.12502
rthumb 4.09835 -9.10972
lclavicle -1.98785e-015 -4.69132e-014
lhumerus -53.6045 -15.2476 80.9416
lradius 84.3951
lwrist 212.247
lhand -26.4081 12.2893
lfingers 7.12502
lthumb 0.15155 42.269
rfemur 12.2872 -9.77396 27.4318
rtibia 40.7122
rfoot -1.39945 1.70638
rtoes -32.7585
lfemur -31.9265 5.25034 -21.029
ltibia 44.8939
lfoot -13.8394 -10.7202
ltoes -22.3079
211
root 13.7274 17.7897 -3.54083 42.9818 108.707 -670.849
lowerback 6.7696 1.38619 7.00699
upperback 6.76804 2.44434 3.01332
thorax 3.40341 1.59792 -0.864915
lowerneck -6.38557 4.25885 -5.99884
upperneck -0.033082 6.16714 -0.347125
head 0.882425 3.08777 1.04783
rclavicle 5.96354e-015 2.62396e-014
rhumerus -40.3227 32.8112 -96.267
rradius 117.009
rwrist 15.0768
rhand -22.4152 20.8375
rfingers 7.12502
rthumb 4.00782 -9.10455
lclavicle 5.96354e-015 2.62396e-014
lhumerus -54.1132 -15.1837 80.6715
lradius 85.3908
lwrist 212.519
lhand -26.6342 11.8308
lfingers 7.12502
lthumb -0.0668172 41.8106
rfemur 11.6626 -10.2623 26.9427
rtibia 43.3181
rfoot -0.120553 2.42429
rtoes -32.4969
lfemur -30.7329 4.95358 -21.5026
ltibia 41.3552
lfoot -14.1445 -11.1143
ltoes -24.7847
